<svg xmlns="http://www.w3.org/2000/svg" xmlns:xlink="http://www.w3.org/1999/xlink" id="Layer_1" data-name="Layer 1" viewBox="0 0 496.68 170.31"><defs><style>.cls-1,.cls-10,.cls-3,.cls-6,.cls-7{fill:none;}.cls-2{fill:url(#linear-gradient);}.cls-3{stroke:#39cefb;}.cls-10,.cls-3{stroke-linecap:round;}.cls-10,.cls-3,.cls-6,.cls-7{stroke-miterlimit:10;}.cls-10,.cls-3,.cls-6{stroke-width:2px;}.cls-4{clip-path:url(#clip-path);}.cls-5{fill:url(#linear-gradient-2);}.cls-6{stroke:url(#linear-gradient-3);}.cls-7{stroke:#00b2f4;}.cls-8{fill:#00b2f4;}.cls-9{fill:url(#radial-gradient);}.cls-10{stroke:url(#linear-gradient-4);}.cls-11{fill:url(#linear-gradient-5);}.cls-12{fill:#fff;}</style><linearGradient id="linear-gradient" x1="30" y1="135.15" x2="53.94" y2="56.22" gradientUnits="userSpaceOnUse"><stop offset="0" stop-color="#1784eb"></stop><stop offset="1" stop-color="#2dd3fc"></stop></linearGradient><clipPath id="clip-path"><polygon class="cls-1" points="103.33 47.44 93.11 38.42 97.22 30.65 108.94 39.66 103.33 47.44"></polygon></clipPath><linearGradient id="linear-gradient-2" x1="75.62" y1="116.46" x2="100.13" y2="35.65" xlink:href="#linear-gradient"></linearGradient><linearGradient id="linear-gradient-3" x1="48.68" y1="143.17" x2="69.13" y2="27.14" xlink:href="#linear-gradient"></linearGradient><radialGradient id="radial-gradient" cx="68.28" cy="180.47" r="50.17" gradientTransform="translate(-4.93 -100.35) rotate(1.57)" gradientUnits="userSpaceOnUse"><stop offset="0.2" stop-color="#29f2a1"></stop><stop offset="1" stop-color="#00b2f4" stop-opacity="0.5"></stop></radialGradient><linearGradient id="linear-gradient-4" x1="30.12" y1="168.97" x2="62.64" y2="61.78" gradientUnits="userSpaceOnUse"><stop offset="0.28" stop-color="#1784eb"></stop><stop offset="1" stop-color="#2dd3fc"></stop></linearGradient><linearGradient id="linear-gradient-5" x1="7.17" y1="160.37" x2="50.47" y2="17.64" xlink:href="#linear-gradient"></linearGradient></defs><circle class="cls-2" cx="23.85" cy="155.41" r="7.48"></circle><path class="cls-3" d="M58.31,20.83c10.37-14.44,20.92-22,29.16-19.3,9.28,3,13.53,18.22,11.73,41.78"></path><g class="cls-4"><circle class="cls-5" cx="97.99" cy="42.71" r="5.15"></circle></g><path class="cls-6" d="M58.9,143.06a57.91,57.91,0,1,1,57.91-57.9A58,58,0,0,1,58.9,143.06Z"></path><line class="cls-7" x1="144.51" y1="29.65" x2="144.51" y2="133.46"></line><path class="cls-8" d="M205.64,103.53v29.69h-3.23v-5.77a13.45,13.45,0,0,1-11.75,6.49c-8.52,0-14.81-6.88-14.81-15.71s6.29-15.42,14.81-15.42a13.53,13.53,0,0,1,11.75,6.43v-5.71Zm-2.95,14.7c0-6.77-4.85-12.37-11.86-12.37s-11.64,5.55-11.64,12.49,4.68,12.54,11.64,12.54S202.69,125.17,202.69,118.23Z"></path><path class="cls-8" d="M216.21,103.53h3.23v5.21c1.78-4,5.63-6,10.36-6,6.35,0,11.8,4.22,11.8,12.54v17.93h-3.34V115.9c0-6.21-3.39-10-8.85-10-4.57,0-9.86,3-9.86,10.71v16.65h-3.34Z"></path><path class="cls-8" d="M279.58,103.53v29.69h-3.23v-5.77a13.46,13.46,0,0,1-11.75,6.49c-8.52,0-14.81-6.88-14.81-15.71s6.29-15.42,14.81-15.42a13.54,13.54,0,0,1,11.75,6.43v-5.71Zm-3,14.7c0-6.77-4.84-12.37-11.85-12.37s-11.64,5.55-11.64,12.49,4.68,12.54,11.64,12.54S276.62,125.17,276.62,118.23Z"></path><path class="cls-8" d="M290.15,133.22V91.32h3.34v41.9Z"></path><path class="cls-8" d="M328.24,103.53l-12.59,31.91c-2.89,7.43-5.57,10.38-10.19,10.38a9,9,0,0,1-4.28-1.06l.5-2.94a8.49,8.49,0,0,0,3.67.89c3.23,0,5.29-2.83,7.13-7.61l.72-1.88-12.69-29.69h3.67l10.64,25.36,9.74-25.36Z"></path><path class="cls-8" d="M353.51,131.33a12.81,12.81,0,0,1-7.9,2.55c-6.13,0-9-4.1-9-10.37v-17h-5.29v-2.94h5.35V93H340v10.49h12.25v2.94H340v17.15c0,4.6,1.9,7.21,5.91,7.21a10.71,10.71,0,0,0,6.23-2.05Z"></path><path class="cls-8" d="M358.36,96a2.87,2.87,0,1,1,5.73,0,2.87,2.87,0,0,1-5.73,0Zm1.16,37.18V103.53h3.35v29.69Z"></path><path class="cls-8" d="M371.66,118.4c0-9.16,6.52-15.59,15.54-15.59,5.84,0,11,2.94,13.31,7.65L397.78,112a11.88,11.88,0,0,0-10.58-6.16c-7,0-12.2,5.16-12.2,12.54s5,12.43,11.86,12.43a12.35,12.35,0,0,0,10.75-6.16l2.73,1.67c-2.4,4.6-7.69,7.54-13.48,7.54C378,133.88,371.66,127.45,371.66,118.4Z"></path><path class="cls-8" d="M405.46,127.39l2.67-1.66a8.69,8.69,0,0,0,7.85,5.16c4.18,0,6.79-2.67,6.79-5.61,0-2.44-1.67-3.77-3.78-4.83s-5.12-2-7.13-3.1c-3.12-1.61-4.73-4-4.73-6.94,0-4.33,3.39-7.88,9.13-7.88a10.17,10.17,0,0,1,9,4.66l-2.33,1.89a7.39,7.39,0,0,0-6.69-3.61c-3.84,0-5.84,2.16-5.84,4.83,0,2,1.22,3.49,3.23,4.49s4.9,1.95,7.29,3.17c3.06,1.5,5.23,3.44,5.23,7.1,0,4.83-4.12,8.82-10.13,8.82A11.35,11.35,0,0,1,405.46,127.39Z"></path><path class="cls-9" d="M32.43,42a.7.7,0,0,1-.73-1.2A51.78,51.78,0,0,1,60,33.27a.71.71,0,0,1,0,1.41A50.21,50.21,0,0,0,32.43,42ZM13.36,62.69a.7.7,0,0,1-1.26-.62,52,52,0,0,1,11-14.82.7.7,0,0,1,1,1A50.62,50.62,0,0,0,13.36,62.69ZM8.15,82.75a.7.7,0,0,1-1.4,0c0-.57,0-1.14,0-1.72a.71.71,0,0,1,1.41,0c0,.57,0,1.13,0,1.69Zm16,39.29a.7.7,0,0,1-1,1A51.77,51.77,0,0,1,6.77,87.81a.71.71,0,0,1,1.41-.07,50.31,50.31,0,0,0,16,34.3ZM80.74,39.77a.7.7,0,0,1,.61-1.26,51.89,51.89,0,0,1,28.77,40.75.7.7,0,0,1-1.4.15,50.51,50.51,0,0,0-28-39.64ZM32.91,46a.7.7,0,0,1-.77-1.17,48,48,0,0,1,19.5-7.4.7.7,0,0,1,.2,1.39A46.68,46.68,0,0,0,32.91,46ZM19.81,58.92a.7.7,0,0,1-1.16-.78A48.11,48.11,0,0,1,25,50.55a.7.7,0,0,1,1,1,46.81,46.81,0,0,0-6.18,7.36Zm6.74,60.3a.7.7,0,0,1-1,1,48.16,48.16,0,0,1-15-30.94.7.7,0,0,1,1.4-.12,46.73,46.73,0,0,0,14.58,30Zm60.38,3.12a.7.7,0,0,1,.85,1.11A48.36,48.36,0,0,1,73.46,131a.71.71,0,0,1-.44-1.34,47,47,0,0,0,13.91-7.29ZM101.71,67a.7.7,0,0,1,1.29-.54,48,48,0,0,1,3.76,17.91.71.71,0,0,1-1.41,0A46.74,46.74,0,0,0,101.71,67ZM72.35,40.4a.7.7,0,0,1,.41-1.34,48.31,48.31,0,0,1,26,19.52.7.7,0,0,1-1.17.77,46.85,46.85,0,0,0-25.28-19Zm20.93,70.49a.7.7,0,0,1,1.12.85A45.18,45.18,0,0,1,72,127.56a.7.7,0,0,1-.42-1.34,43.78,43.78,0,0,0,21.7-15.32Zm8.15-20.47a.7.7,0,0,1,1.4.15,42.09,42.09,0,0,1-1.4,7.12.7.7,0,0,1-1.34-.38,41.33,41.33,0,0,0,1.34-6.89ZM67.23,42.9a.7.7,0,0,1,.27-1.38,43.66,43.66,0,0,1,26.09,16.1A46.17,46.17,0,0,1,103,87.4a.7.7,0,0,1-1.4,0,44.79,44.79,0,0,0-9.16-28.89A42.34,42.34,0,0,0,67.23,42.9Zm-19.07.39a.7.7,0,0,1-.34-1.36,44.38,44.38,0,0,1,7.84-1.21.7.7,0,0,1,.09,1.4,42.34,42.34,0,0,0-7.59,1.17ZM28.5,116a.7.7,0,0,1-1,1A44.45,44.45,0,0,1,14.61,92.05.7.7,0,0,1,16,91.84,43,43,0,0,0,28.5,116ZM97.34,92.27a.7.7,0,0,1,1.38.25,40.85,40.85,0,0,1-27.39,31.37.7.7,0,0,1-.44-1.33A39.48,39.48,0,0,0,97.34,92.27ZM91.23,63.05a.7.7,0,0,1,1.16-.79,40.85,40.85,0,0,1,6.76,27.36.7.7,0,0,1-1.4-.15,39.37,39.37,0,0,0-6.52-26.42ZM57.12,45.73a.7.7,0,0,1,0-1.4A40.72,40.72,0,0,1,89.42,58.39a.7.7,0,0,1-1,.92A39.36,39.36,0,0,0,57.12,45.73ZM28.7,110.81a.71.71,0,0,1-1.07.92,40.93,40.93,0,0,1-6.91-11.34.7.7,0,0,1,1.3-.52,39.4,39.4,0,0,0,6.68,10.94ZM94.17,88.13a.7.7,0,0,1,1.4.11,37.13,37.13,0,0,1-25.83,32.29.7.7,0,0,1-.42-1.34A35.73,35.73,0,0,0,94.17,88.13ZM86,62.17a.7.7,0,0,1,1.08-.9,37,37,0,0,1,8.62,21.95.7.7,0,0,1-1.4.07A35.59,35.59,0,0,0,86,62.17ZM55,49.56a.7.7,0,0,1-.14-1.39A37.09,37.09,0,0,1,84.64,58.68a.7.7,0,0,1-1,1A35.76,35.76,0,0,0,55,49.56ZM31,107.87a.7.7,0,0,1-1.08.9A36.94,36.94,0,0,1,26.05,103a.7.7,0,0,1,1.22-.67A36,36,0,0,0,31,107.87ZM87.6,71.53a.7.7,0,0,1,1.27-.6,33.48,33.48,0,0,1-19.2,45.74.7.7,0,0,1-.46-1.33A32.07,32.07,0,0,0,87.6,71.53ZM58.32,53.07a.7.7,0,0,1,0-1.4A33.41,33.41,0,0,1,86,66a.7.7,0,0,1-1.15.81A32,32,0,0,0,58.32,53.07ZM83.59,71.76a.7.7,0,0,1,1.24-.66,29.78,29.78,0,0,1-13.32,40.82.7.7,0,0,1-.61-1.26,28.39,28.39,0,0,0,12.69-38.9Zm-23.44-15a.7.7,0,0,1,.08-1.4,29.68,29.68,0,0,1,20.22,9.54.7.7,0,0,1-1,1A28.3,28.3,0,0,0,60.16,56.8Zm18,13.28a.7.7,0,0,1,1.11-.85,26.07,26.07,0,0,1-8.89,39.13.7.7,0,0,1-.64-1.24,24.68,24.68,0,0,0,8.42-37ZM72,64.4a.7.7,0,0,1,.76-1.17A24.84,24.84,0,0,1,75,64.83a.7.7,0,0,1-.88,1.09c-.67-.54-1.37-1-2.09-1.52Zm-4.09-2.13a.7.7,0,0,1,.53-1.3c.57.23,1.12.48,1.68.75A.7.7,0,0,1,69.48,63c-.52-.25-1-.49-1.59-.71ZM54.44,60.79a.7.7,0,0,1-.23-1.39,26.4,26.4,0,0,1,10.25.31.7.7,0,0,1-.31,1.37,25,25,0,0,0-9.71-.29Zm11.37,4.62a.7.7,0,0,1,.48-1.32,22.4,22.4,0,0,1,2.31,41,.7.7,0,0,1-.63-1.26,21,21,0,0,0-2.16-38.46Zm-11.92-.76a.7.7,0,0,1-.31-1.37,22.64,22.64,0,0,1,8.08-.34.7.7,0,0,1-.19,1.39,21.24,21.24,0,0,0-7.58.32Zm-.48,3.95A.7.7,0,0,1,53,67.26a18.7,18.7,0,0,1,16.29,33.18.7.7,0,0,1-.8-1.15,17.3,17.3,0,0,0-9.44-31.46,17.09,17.09,0,0,0-5.64.77Zm-7.7,12.06a.7.7,0,0,1-1.33-.45,15,15,0,1,1,21.16,18.2.7.7,0,0,1-.65-1.24A13.61,13.61,0,1,0,45.71,80.66Zm5.51,11.11a.7.7,0,0,1-1,.94,11.34,11.34,0,1,1,8.1,3.73.71.71,0,0,1,0-1.41,9.92,9.92,0,1,0-7.09-3.26Zm7.53-12.89a6.24,6.24,0,1,0,6.06,6.4A6.24,6.24,0,0,0,58.75,78.88Zm0-1.41a7.64,7.64,0,1,1-7.85,7.43A7.65,7.65,0,0,1,58.79,77.47Zm-.14,5.09a2.55,2.55,0,0,0-.14,5.1,2.56,2.56,0,0,0,2.62-2.48,2.56,2.56,0,0,0-2.48-2.62Zm0-1.4A4,4,0,1,1,54.62,85a4,4,0,0,1,4.07-3.85Z"></path><path class="cls-10" d="M62.85,148.32c-9.52,13.61-18.84,21-26.49,21a10.92,10.92,0,0,1-3.42-.53c-7.76-2.53-12.06-13.72-12.12-31.5-.06-17.39,3.89-39.17,11.11-61.34,2.31-7.07,4.82-13.82,7.48-20.16"></path><circle class="cls-11" cx="37.2" cy="61.39" r="11.09"></circle><path class="cls-12" d="M176.85,31.8h28.69v5.58H182.67V52h21.16v5.58H182.67V73.05h22.94v5.57H176.85Z"></path><path class="cls-12" d="M246.79,44.73V78.62h-5.45V73.75a15.12,15.12,0,0,1-12.1,5.7c-9.75,0-17-7.86-17-18s7.23-17.55,17-17.55a15,15,0,0,1,12.1,5.83v-5Zm-5,16.91c0-6.77-4.69-12.54-12-12.54S218,54.87,218,61.71s4.57,12.54,11.85,12.54S241.79,68.55,241.79,61.64Z"></path><path class="cls-12" d="M255.6,44.73h5.32V49.8c2-4.06,5.26-6,9.82-6a15.21,15.21,0,0,1,3.93.51l-.51,5.51a11.41,11.41,0,0,0-3.48-.57c-5.13,0-9.44,3.42-9.44,11.09V78.62H255.6Z"></path><path class="cls-12" d="M303.37,76.6a14.55,14.55,0,0,1-8.87,2.85c-7.29,0-10.71-4.82-10.71-12.61V49.61h-6V44.73h6.09v-12h5.57v12h12.1v4.88h-12.1v17.8c0,4.18,1.46,6.84,5.58,6.84a11.66,11.66,0,0,0,6.14-2Z"></path><path class="cls-12" d="M308.82,30.66h5.45V48.91c2.09-3,6-5.07,10.77-5.07,7,0,13.37,4.56,13.37,14.26V78.62h-5.64V59.68c0-7-3.74-10.58-8.81-10.58-5.64,0-9.5,4.37-9.5,10.58V78.62h-5.64Z"></path><path class="cls-12" d="M349.24,31.8h17.24c13.17,0,21.41,9.06,21.41,23.51s-8.3,23.31-22.05,23.31h-16.6ZM366,73.05c10.2,0,15.78-7.73,15.78-17.93s-5.58-17.74-15.71-17.74h-11V73.05Z"></path><path class="cls-12" d="M427.49,44.73V78.62H422V73.75a15.12,15.12,0,0,1-12.1,5.7c-9.76,0-17-7.86-17-18s7.22-17.55,17-17.55A15,15,0,0,1,422,49.73v-5Zm-5,16.91c0-6.77-4.68-12.54-12-12.54s-11.85,5.77-11.85,12.61,4.56,12.54,11.85,12.54S422.48,68.55,422.48,61.64Z"></path><path class="cls-12" d="M436.23,35.61a4.19,4.19,0,1,1,4.25,4.18A4.1,4.1,0,0,1,436.23,35.61Zm1.33,43V44.73h5.64V78.62Z"></path><path class="cls-12" d="M452,78.62v-48h5.64v48Z"></path><path class="cls-12" d="M496.68,44.73l-14.32,38C479.44,90.41,475.83,93,471,93a9.77,9.77,0,0,1-5.25-1.27l.63-5a11.16,11.16,0,0,0,4.12,1c2.66,0,4.88-1.59,6.71-6l1.33-3.3L463.8,44.73h6.52l10.77,26,9.31-26Z"></path></svg>